#!OML:ASF E:\Style4\Style4.ASF
:FULLY-SPECIFIED
:DEGREES
3061
root -0.240771 17.8503 -0.226171 -3.65447 17.6666 3.02485
lowerback 7.14579 4.33857 -0.408847
upperback 6.33543 5.80696 -0.483962
thorax 2.57493 2.92772 -0.544253
lowerneck 6.10908 -4.35977 -3.81271
upperneck 1.46951 -6.00673 6.57059
head -0.250763 -3.07744 2.86154
rclavicle -1.42131e-013 1.78906e-014
rhumerus 9.06521 12.3751 -81.5517
rradius 130.51
rwrist 17.9822
rhand 17.8526 -2.48532
rfingers 7.12502
rthumb 42.5297 -26.8954
lclavicle -1.42131e-013 1.78906e-014
lhumerus 13.302 -19.6514 74.1714
lradius 120.242
lwrist -12.8435
lhand 14.4031 36.156
lfingers 7.12502
lthumb 39.2895 61.5925
rfemur -0.19117 -6.34906 17.0996
rtibia 26.6935
rfoot -21.5795 -22.1932
rtoes -5.90595
lfemur -4.61543 -4.46753 -21.1151
ltibia 23.8051
lfoot -13.966 -0.610882
ltoes -14.5922
3062
root -0.235733 17.8525 -0.232589 -3.6361 17.5329 2.98944
lowerback 7.12079 4.30353 -0.333325
upperback 6.36319 5.76391 -0.457329
thorax 2.62188 2.90815 -0.552835
lowerneck 6.11371 -4.34131 -3.82353
upperneck 1.3646 -5.97952 6.46225
head -0.28939 -3.06412 2.82914
rclavicle 2.75317e-014 -1.51076e-014
rhumerus 10.0307 12.1763 -81.2708
rradius 130.376
rwrist 18.0985
rhand 17.8103 -2.49779
rfingers 7.12502
rthumb 42.49 -26.9215
lclavicle 2.75317e-014 -1.51076e-014
lhumerus 12.4091 -20.0191 74.5254
lradius 120.638
lwrist -12.3388
lhand 14.894 36.3499
lfingers 7.12502
lthumb 39.7519 61.6503
rfemur -0.248541 -6.27725 17.1235
rtibia 26.675
rfoot -21.4883 -22.1643
rtoes -5.99571
lfemur -4.64669 -4.40282 -21.0931
ltibia 23.8033
lfoot -13.9686 -0.501403
ltoes -14.5829
3063
root -0.232038 17.8543 -0.239929 -3.6544 17.4331 2.92157
lowerback 7.13161 4.26111 -0.196744
upperback 6.41277 5.71465 -0.465113
thorax 2.68146 2.88884 -0.631602
lowerneck 6.0097 -4.31455 -3.7723
upperneck 1.31935 -5.93737 6.37141
head -0.292379 -3.04102 2.7864
rclavicle -3.52843e-015 9.93923e-016
rhumerus 11.0178 11.8909 -81.0158
rradius 130.114
rwrist 18.1806
rhand 17.7107 -2.57365
rfingers 7.12502
rthumb 42.3967 -27.0294
lclavicle -3.52843e-015 9.93923e-016
lhumerus 11.7557 -20.2528 74.9029
lradius 121.157
lwrist -11.7103
lhand 15.5691 36.6908
lfingers 7.12502
lthumb 40.3871 61.7989
rfemur -0.267129 -6.21311 17.1817
rtibia 26.6268
rfoot -21.4621 -22.08
rtoes -5.7854
lfemur -4.66596 -4.37039 -21.0365
ltibia 23.8166
lfoot -13.9885 -0.473687
ltoes -14.4024
3064
root -0.229025 17.855 -0.244375 -3.63971 17.3588 2.88711
lowerback 7.11009 4.23787 -0.09542
upperback 6.44842 5.68972 -0.494758
thorax 2.74333 2.88094 -0.712605
lowerneck 5.94083 -4.28552 -3.75047
upperneck 1.26275 -5.89407 6.35547
head -0.302002 -3.01881 2.77551
rclavicle -6.5102e-015 1.17283e-014
rhumerus 11.951 11.5255 -80.772
rradius 129.746
rwrist 18.2732
rhand 17.5217 -2.72447
rfingers 7.12502
rthumb 42.2198 -27.2405
lclavicle -6.5102e-015 1.17283e-014
lhumerus 11.2922 -20.5246 75.1971
lradius 121.635
lwrist -11.1685
lhand 15.9451 36.9418
lfingers 7.12502
lthumb 40.7406 61.9401
rfemur -0.303457 -6.1651 17.2105
rtibia 26.5899
rfoot -21.3738 -22.1018
rtoes -6.0414
lfemur -4.69366 -4.35604 -21.0138
ltibia 23.8108
lfoot -13.9904 -0.428222
ltoes -14.2448
3065
root -0.226484 17.8576 -0.248648 -3.58918 17.3247 2.88878
lowerback 7.07773 4.20715 -0.0852502
upperback 6.44285 5.64948 -0.505912
thorax 2.75685 2.86122 -0.725428
lowerneck 5.90167 -4.23783 -3.76715
upperneck 1.26384 -5.83133 6.30038
head -0.299548 -2.9865 2.75818
rclavicle -3.10601e-014 1.17283e-014
rhumerus 12.7904 11.2864 -80.5143
rradius 129.228
rwrist 18.541
rhand 17.2258 -2.81945
rfingers 7.12502
rthumb 41.9425 -27.4287
lclavicle -3.10601e-014 1.17283e-014
lhumerus 10.8974 -20.8641 75.4338
lradius 122.064
lwrist -10.8933
lhand 16.2752 36.8952
lfingers 7.12502
lthumb 41.0506 61.7955
rfemur -0.373792 -6.16922 17.1986
rtibia 26.5765
rfoot -21.161 -22.1888
rtoes -6.77287
lfemur -4.7447 -4.33533 -21.0244
ltibia 23.7915
lfoot -13.9978 -0.383307
ltoes -14.5235
3066
root -0.225025 17.8606 -0.255883 -3.51024 17.3294 2.92234
lowerback 7.04853 4.1717 -0.105497
upperback 6.41318 5.60146 -0.536507
thorax 2.74234 2.83678 -0.742623
lowerneck 5.9031 -4.20168 -3.76638
upperneck 1.26794 -5.7838 6.20637
head -0.303859 -2.96189 2.72609
rclavicle -5.13361e-014 7.95139e-015
rhumerus 13.5201 11.0608 -80.3168
rradius 128.596
rwrist 18.899
rhand 16.9559 -2.7876
rfingers 7.12502
rthumb 41.6894 -27.4809
lclavicle -5.13361e-014 7.95139e-015
lhumerus 10.6712 -21.2134 75.6421
lradius 122.512
lwrist -10.6727
lhand 16.9609 36.7895
lfingers 7.12502
lthumb 41.6941 61.4812
rfemur -0.478184 -6.15806 17.1593
rtibia 26.5834
rfoot -21.1598 -22.1565
rtoes -6.65405
lfemur -4.82674 -4.36234 -21.066
ltibia 23.7622
lfoot -13.96 -0.365242
ltoes -14.3959
3067
root -0.22222 17.8616 -0.264537 -3.41249 17.3543 2.99165
lowerback 7.01866 4.14593 -0.113036
upperback 6.39408 5.56754 -0.584782
thorax 2.74252 2.82043 -0.784883
lowerneck 5.86248 -4.18358 -3.80918
upperneck 1.30883 -5.76361 6.13204
head -0.285927 -2.95037 2.70677
rclavicle 6.95746e-015 -9.14409e-015
rhumerus 14.139 10.9051 -80.1932
rradius 127.891
rwrist 19.2223
rhand 16.7554 -2.67539
rfingers 7.12502
rthumb 41.5013 -27.4303
lclavicle 6.95746e-015 -9.14409e-015
lhumerus 10.7919 -21.5362 75.7983
lradius 123.01
lwrist -10.2392
lhand 17.4258 36.9981
lfingers 7.12502
lthumb 42.1299 61.5445
rfemur -0.582764 -6.20958 17.0648
rtibia 26.5949
rfoot -21.2129 -22.0585
rtoes -6.2683
lfemur -4.92828 -4.36361 -21.1586
ltibia 23.7379
lfoot -13.8998 -0.301109
ltoes -14.746
3068
root -0.221311 17.8623 -0.271715 -3.34381 17.3598 3.02312
lowerback 7.00072 4.11974 -0.149925
upperback 6.37431 5.53071 -0.589613
thorax 2.72809 2.80047 -0.767557
lowerneck 5.81458 -4.14621 -3.90115
upperneck 1.38765 -5.72213 6.01319
head -0.255788 -2.92766 2.68041
rclavicle 1.07344e-014 -4.57205e-015
rhumerus 14.8129 10.6625 -80.0027
rradius 127.032
rwrist 19.3171
rhand 16.7351 -2.513
rfingers 7.12502
rthumb 41.4823 -27.2741
lclavicle 1.07344e-014 -4.57205e-015
lhumerus 11.0778 -21.7555 75.9332
lradius 123.468
lwrist -9.9679
lhand 17.4136 37.103
lfingers 7.12502
lthumb 42.1185 61.6532
rfemur -0.683429 -6.22376 17.0277
rtibia 26.6175
rfoot -21.1796 -22.0841
rtoes -6.23203
lfemur -5.00791 -4.36748 -21.1961
ltibia 23.7181
lfoot -13.8601 -0.301251
ltoes -14.6519
